<svg width="30" height="34" viewBox="0 0 30 34" fill="none" xmlns="http://www.w3.org/2000/svg">
<path d="M28.3332 10.3333L18.3332 1.56668C17.4165 0.746752 16.2298 0.293457 14.9999 0.293457C13.77 0.293457 12.5833 0.746752 11.6666 1.56668L1.66658 10.3333C1.13719 10.8068 0.714747 11.3876 0.427367 12.0371C0.139987 12.6866 -0.00573174 13.3898 -8.61505e-05 14.1V28.6667C-8.61505e-05 29.9928 0.526698 31.2645 1.46438 32.2022C2.40206 33.1399 3.67383 33.6667 4.99991 33.6667H24.9999C26.326 33.6667 27.5978 33.1399 28.5354 32.2022C29.4731 31.2645 29.9999 29.9928 29.9999 28.6667V14.0833C30.0032 13.3759 29.8563 12.6759 29.569 12.0295C29.2817 11.383 28.8605 10.8049 28.3332 10.3333ZM18.3332 30.3333H11.6666V22C11.6666 21.558 11.8422 21.1341 12.1547 20.8215C12.4673 20.5089 12.8912 20.3333 13.3332 20.3333H16.6666C17.1086 20.3333 17.5325 20.5089 17.8451 20.8215C18.1576 21.1341 18.3332 21.558 18.3332 22V30.3333ZM26.6666 28.6667C26.6666 29.1087 26.491 29.5326 26.1784 29.8452C25.8659 30.1577 25.4419 30.3333 24.9999 30.3333H21.6666V22C21.6666 20.6739 21.1398 19.4022 20.2021 18.4645C19.2644 17.5268 17.9927 17 16.6666 17H13.3332C12.0072 17 10.7354 17.5268 9.79771 18.4645C8.86003 19.4022 8.33325 20.6739 8.33325 22V30.3333H4.99991C4.55789 30.3333 4.13396 30.1577 3.8214 29.8452C3.50884 29.5326 3.33325 29.1087 3.33325 28.6667V14.0833C3.33355 13.8467 3.38424 13.6128 3.48194 13.3973C3.57965 13.1818 3.72213 12.9895 3.89991 12.8333L13.8999 4.08334C14.2041 3.81614 14.5951 3.66879 14.9999 3.66879C15.4048 3.66879 15.7958 3.81614 16.0999 4.08334L26.0999 12.8333C26.2777 12.9895 26.4202 13.1818 26.5179 13.3973C26.6156 13.6128 26.6663 13.8467 26.6666 14.0833V28.6667Z" fill="#1F1F1F"/>
</svg>
